# Blender 4.3.2
# www.blender.org
mtllib floor.mtl
o Circle
v 39.374912 0.000000 -196.085754
v 0.363901 0.000000 -199.999664
v -38.661095 0.000000 -196.227722
v -76.200363 0.000000 -184.914856
v -110.811287 0.000000 -166.495819
v -141.163803 0.000000 -141.678436
v -166.091461 0.000000 -111.416443
v -184.636337 0.000000 -76.872757
v -196.085754 0.000000 -39.374908
v -199.999664 0.000000 -0.363901
v -196.227722 0.000000 38.661098
v -184.914856 0.000000 76.200363
v -166.495819 0.000000 110.811287
v -141.678436 0.000000 141.163803
v -111.416443 0.000000 166.091461
v -76.872757 0.000000 184.636337
v -39.374912 0.000000 196.085754
v -0.363901 0.000000 199.999664
v 38.661095 0.000000 196.227722
v 76.200363 0.000000 184.914856
v 110.811287 0.000000 166.495819
v 141.163803 0.000000 141.678436
v 166.091461 0.000000 111.416443
v 184.636337 0.000000 76.872757
v 196.085754 0.000000 39.374916
v 199.999664 0.000000 0.363901
v 196.227722 0.000000 -38.661095
v 184.914856 0.000000 -76.200363
v 166.495819 0.000000 -110.811287
v 141.678436 0.000000 -141.163803
v 111.416443 0.000000 -166.091461
v 76.872757 0.000000 -184.636337
v 19.869410 0.000000 -198.042694
v -19.148600 0.000000 -198.113678
v -57.430725 0.000000 -190.571289
v -93.505829 0.000000 -175.705338
v -125.987541 0.000000 -154.087143
v -153.627655 0.000000 -126.547440
v -175.363892 0.000000 -94.144600
v -190.361023 0.000000 -58.123837
v -198.042694 0.000000 -19.869411
v -198.113678 0.000000 19.148594
v -190.571289 0.000000 57.430725
v -175.705338 0.000000 93.505829
v -154.087143 0.000000 125.987541
v -126.547440 0.000000 153.627655
v -94.144600 0.000000 175.363892
v -58.123837 0.000000 190.361023
v -19.869410 0.000000 198.042694
v 19.148596 0.000000 198.113678
v 57.430725 0.000000 190.571289
v 93.505829 0.000000 175.705338
v 125.987541 0.000000 154.087143
v 153.627655 0.000000 126.547440
v 175.363892 0.000000 94.144600
v 190.361023 0.000000 58.123837
v 198.042694 0.000000 19.869408
v 198.113678 0.000000 -19.148600
v 190.571289 0.000000 -57.430725
v 175.705338 0.000000 -93.505829
v 154.087143 0.000000 -125.987541
v 126.547440 0.000000 -153.627655
v 94.144600 0.000000 -175.363892
v 58.123837 0.000000 -190.361023
vn -0.0000 1.0000 -0.0000
vt 0.355557 0.976166
vt 0.976166 0.644443
vt 0.644443 0.023834
vt 0.597545 0.009607
vt 0.548772 0.004804
vt 0.500000 0.000000
vt 0.451227 0.004804
vt 0.402455 0.009607
vt 0.355556 0.023834
vt 0.308658 0.038060
vt 0.265436 0.061163
vt 0.222215 0.084265
vt 0.184331 0.115356
vt 0.146446 0.146447
vt 0.115356 0.184331
vt 0.084265 0.222215
vt 0.061163 0.265437
vt 0.038060 0.308659
vt 0.023834 0.355557
vt 0.009607 0.402455
vt 0.004804 0.451228
vt 0.000000 0.500000
vt 0.004804 0.548773
vt 0.009607 0.597546
vt 0.023834 0.644444
vt 0.038060 0.691342
vt 0.061163 0.734564
vt 0.084266 0.777786
vt 0.115356 0.815670
vt 0.146447 0.853554
vt 0.184331 0.884645
vt 0.222215 0.915735
vt 0.265437 0.938838
vt 0.308659 0.961940
vt 0.402456 0.990393
vt 0.451228 0.995196
vt 0.500000 1.000000
vt 0.548773 0.995196
vt 0.597545 0.990393
vt 0.644443 0.976166
vt 0.691342 0.961940
vt 0.734563 0.938837
vt 0.777785 0.915735
vt 0.815669 0.884644
vt 0.853553 0.853553
vt 0.884644 0.815669
vt 0.915735 0.777785
vt 0.938837 0.734563
vt 0.961940 0.691342
vt 0.990393 0.597545
vt 0.995196 0.548773
vt 1.000000 0.500000
vt 0.995196 0.451227
vt 0.990393 0.402455
vt 0.976166 0.355557
vt 0.961940 0.308658
vt 0.938837 0.265437
vt 0.915735 0.222215
vt 0.884644 0.184331
vt 0.853553 0.146447
vt 0.815669 0.115356
vt 0.777785 0.084265
vt 0.734563 0.061163
vt 0.691342 0.038060
s 0
usemtl Material
f 64/1/1 40/2/1 48/3/1
f 48/3/1 17/4/1 49/5/1
f 49/5/1 18/6/1 50/7/1
f 50/7/1 19/8/1 51/9/1
f 51/9/1 20/10/1 52/11/1
f 52/11/1 21/12/1 53/13/1
f 53/13/1 22/14/1 54/15/1
f 54/15/1 23/16/1 55/17/1
f 55/17/1 24/18/1 56/19/1
f 56/19/1 25/20/1 57/21/1
f 57/21/1 26/22/1 58/23/1
f 58/23/1 27/24/1 59/25/1
f 59/25/1 28/26/1 60/27/1
f 60/27/1 29/28/1 61/29/1
f 61/29/1 30/30/1 62/31/1
f 62/31/1 31/32/1 63/33/1
f 63/33/1 32/34/1 64/1/1
f 64/1/1 1/35/1 33/36/1
f 33/36/1 2/37/1 34/38/1
f 34/38/1 3/39/1 35/40/1
f 35/40/1 4/41/1 36/42/1
f 36/42/1 5/43/1 37/44/1
f 37/44/1 6/45/1 38/46/1
f 38/46/1 7/47/1 39/48/1
f 39/48/1 8/49/1 40/2/1
f 40/2/1 9/50/1 41/51/1
f 41/51/1 10/52/1 42/53/1
f 42/53/1 11/54/1 43/55/1
f 43/55/1 12/56/1 44/57/1
f 44/57/1 13/58/1 45/59/1
f 45/59/1 14/60/1 46/61/1
f 46/61/1 15/62/1 47/63/1
f 47/63/1 16/64/1 48/3/1
f 48/3/1 49/5/1 50/7/1
f 50/7/1 51/9/1 52/11/1
f 52/11/1 53/13/1 54/15/1
f 54/15/1 55/17/1 56/19/1
f 56/19/1 57/21/1 58/23/1
f 58/23/1 59/25/1 60/27/1
f 60/27/1 61/29/1 62/31/1
f 62/31/1 63/33/1 64/1/1
f 64/1/1 33/36/1 34/38/1
f 34/38/1 35/40/1 36/42/1
f 36/42/1 37/44/1 38/46/1
f 38/46/1 39/48/1 40/2/1
f 40/2/1 41/51/1 42/53/1
f 42/53/1 43/55/1 44/57/1
f 44/57/1 45/59/1 46/61/1
f 46/61/1 47/63/1 48/3/1
f 48/3/1 50/7/1 52/11/1
f 52/11/1 54/15/1 56/19/1
f 56/19/1 58/23/1 60/27/1
f 60/27/1 62/31/1 64/1/1
f 64/1/1 34/38/1 36/42/1
f 36/42/1 38/46/1 40/2/1
f 40/2/1 42/53/1 44/57/1
f 44/57/1 46/61/1 48/3/1
f 48/3/1 52/11/1 56/19/1
f 56/19/1 60/27/1 64/1/1
f 64/1/1 36/42/1 40/2/1
f 40/2/1 44/57/1 48/3/1
f 48/3/1 56/19/1 64/1/1
